HIERARCHY
ROOT Hips
{
	OFFSET 0.00000 0.00000 0.00000
	CHANNELS 6 Xposition Yposition Zposition Zrotation Yrotation Xrotation 
	JOINT LHipJoint
	{
		OFFSET 0 0 0
		CHANNELS 3 Zrotation Yrotation Xrotation
		JOINT LeftUpLeg
		{
			OFFSET 1.75344 -1.53157 0.77399
			CHANNELS 3 Zrotation Yrotation Xrotation
			JOINT LeftLeg
			{
				OFFSET 2.25415 -6.19323 0.00000
				CHANNELS 3 Zrotation Yrotation Xrotation
				JOINT LeftFoot
				{
					OFFSET 2.30342 -6.32861 0.00000
					CHANNELS 3 Zrotation Yrotation Xrotation
					JOINT LeftToeBase
					{
						OFFSET 0.10958 -0.30108 1.49206
						CHANNELS 3 Zrotation Yrotation Xrotation
						End Site
						{
							OFFSET 0.00000 -0.00000 0.77783
						}
					}
				}
			}
		}
	}
	JOINT RHipJoint
	{
		OFFSET 0 0 0
		CHANNELS 3 Zrotation Yrotation Xrotation
		JOINT RightUpLeg
		{
			OFFSET -1.81912 -1.53156 0.77399
			CHANNELS 3 Zrotation Yrotation Xrotation
			JOINT RightLeg
			{
				OFFSET -2.22882 -6.12365 0.00000
				CHANNELS 3 Zrotation Yrotation Xrotation
				JOINT RightFoot
				{
					OFFSET -2.21943 -6.09785 0.00000
					CHANNELS 3 Zrotation Yrotation Xrotation
					JOINT RightToeBase
					{
						OFFSET -0.18931 -0.52012 1.59379
						CHANNELS 3 Zrotation Yrotation Xrotation
						End Site
						{
							OFFSET -0.00000 -0.00000 0.84686
						}
					}
				}
			}
		}
	}
	JOINT LowerBack
	{
		OFFSET 0 0 0
		CHANNELS 3 Zrotation Yrotation Xrotation
		JOINT Spine
		{
			OFFSET -0.00200 1.66634 -0.14248
			CHANNELS 3 Zrotation Yrotation Xrotation
			JOINT Spine1
			{
				OFFSET -0.00875 1.64542 0.09514
				CHANNELS 3 Zrotation Yrotation Xrotation
				JOINT Neck
				{
					OFFSET 0 0 0
					CHANNELS 3 Zrotation Yrotation Xrotation
					JOINT Neck1
					{
						OFFSET 0.02257 1.59605 0.00839
						CHANNELS 3 Zrotation Yrotation Xrotation
						JOINT Head
						{
							OFFSET -0.10214 1.57530 -0.23335
							CHANNELS 3 Zrotation Yrotation Xrotation
							End Site
							{
								OFFSET -0.03588 1.60717 -0.08062
							}
						}
					}
				}
				JOINT LeftShoulder
				{
					OFFSET 0 0 0
					CHANNELS 3 Zrotation Yrotation Xrotation
					JOINT LeftArm
					{
						OFFSET 2.54983 1.10186 0.40078
						CHANNELS 3 Zrotation Yrotation Xrotation
						JOINT LeftForeArm
						{
							OFFSET 4.28840 -0.00000 0.00000
							CHANNELS 3 Zrotation Yrotation Xrotation
							JOINT LeftHand
							{
								OFFSET 3.06552 -0.00000 -0.00000
								CHANNELS 3 Zrotation Yrotation Xrotation
								JOINT LeftFingerBase
								{
									OFFSET 0 0 0
									CHANNELS 3 Zrotation Yrotation Xrotation
									JOINT LeftHandIndex1
									{
										OFFSET 0.75304 -0.00000 0.00000
										CHANNELS 3 Zrotation Yrotation Xrotation
										End Site
										{
											OFFSET 0.60712 -0.00000 0.00000
										}
									}
								}
								JOINT LThumb
								{
									OFFSET 0 0 0
									CHANNELS 3 Zrotation Yrotation Xrotation
									End Site
									{
										OFFSET 0.61639 -0.00000 0.61639
									}
								}
							}
						}
					}
				}
				JOINT RightShoulder
				{
					OFFSET 0 0 0
					CHANNELS 3 Zrotation Yrotation Xrotation
					JOINT RightArm
					{
						OFFSET -2.60909 1.35448 0.21802
						CHANNELS 3 Zrotation Yrotation Xrotation
						JOINT RightForeArm
						{
							OFFSET -4.52172 -0.00000 -0.00000
							CHANNELS 3 Zrotation Yrotation Xrotation
							JOINT RightHand
							{
								OFFSET -2.89140 -0.00000 0.00000
								CHANNELS 3 Zrotation Yrotation Xrotation
								JOINT RightFingerBase
								{
									OFFSET 0 0 0
									CHANNELS 3 Zrotation Yrotation Xrotation
									JOINT RightHandIndex1
									{
										OFFSET -0.68054 -0.00000 0.00000
										CHANNELS 3 Zrotation Yrotation Xrotation
										End Site
										{
											OFFSET -0.54867 -0.00000 0.00000
										}
									}
								}
								JOINT RThumb
								{
									OFFSET 0 0 0
									CHANNELS 3 Zrotation Yrotation Xrotation
									End Site
									{
										OFFSET -0.55705 -0.00000 0.55705
									}
								}
							}
						}
					}
				}
			}
		}
	}
}
MOTION
Frames: 15
Frame Time: 0.0740741
0.00 0.00 0.00 0 0 0 0 0 0 -21 0 0 0 0 0 0 0 0 0 0 0 0 0 0 21 0 0 0 0 0 0 0 0 0 0 0 0 0 0 0 0 0 0 0 0 0 0 -16 0 0 21 0 0 11 0 0 0 -8 0 0 0 0 0 0 0 0 0 0 0 0 0 0 0 0 0 0 0 0 8 0 0 0 0 0 0 0 0 0 0 0 0 0 0 0 0 0
0.00 0.00 0.00 -178.1150 4.6905 -158.1860 0.0000 0.0000 0.0000 -9.3110 -22.2758 -54.7332 11.5494 18.1936 64.5533 3.4301 -2.3271 -34.5465 5.0701 -13.4623 -41.1247 0.0000 0.0000 0.0000 15.7282 23.9055 -51.0557 -10.7913 -17.8314 62.1018 -2.1004 -13.2067 -34.7262 -0.3966 4.0437 -11.1995 1.3541 1.6460 21.9409 -0.0907 2.6653 -0.6310 -1.7581 1.1881 -13.0113 -7.8576 -2.5412 -13.6348 7.0458 -3.3252 -8.5173 3.5692 -1.9245 -0.1376 0.0000 -0.0000 0.0000 -34.4738 10.2039 25.3193 21.8538 -32.8114 -6.5065 -0.0000 0.0000 -5.9237 8.4054 -44.9042 -5.9550 -7.1250 0.0000 -0.0000 -14.3545 -14.0176 17.8952 0.0000 -0.0000 0.0000 28.7504 -8.5346 56.7517 -27.1801 38.3504 -9.6107 0.0000 -0.0000 -6.9346 -3.3452 -42.4110 2.2576 7.1250 -0.0000 -0.0000 45.6260 -67.0407 -26.3846
0.00 0.00 0.00 -177.8950 2.8252 -139.9010 0.0000 0.0000 0.0000 -8.2932 -17.0428 -81.4351 16.9575 19.7766 81.0724 4.0857 -9.7620 -36.7760 1.2049 -6.9642 -19.6093 0.0000 0.0000 0.0000 11.2855 22.8912 -76.8256 -16.2023 -19.6506 78.8340 -3.4327 -7.7569 -38.2793 -0.2262 3.0614 -8.4497 -0.1397 1.9971 28.3707 -0.1437 2.7173 -2.0385 -1.2214 1.2301 -17.5546 -4.1072 -1.3206 -10.7023 3.8568 -4.3304 -22.8722 2.0981 -3.5512 -5.0684 0.0000 -0.0000 0.0000 -84.4120 36.0047 -12.4081 15.9896 -25.5066 -3.6415 -0.0000 -0.0000 7.4615 7.4531 -47.4047 -5.5008 -7.1250 0.0000 -0.0000 -15.1332 -16.2639 19.3348 0.0000 -0.0000 0.0000 70.4040 -36.3754 21.0594 -16.2887 25.9106 -3.7712 0.0000 0.0000 11.8185 -2.8703 -41.8905 1.9174 7.1250 -0.0000 -0.0000 45.1876 -66.5387 -25.5948
0.00 0.00 0.00 -178.1590 0.7711 -143.6320 0.0000 0.0000 0.0000 -9.6563 -16.2068 -76.6761 18.7759 19.9640 86.4189 4.1106 -10.6432 -36.8540 0.5386 -4.7022 -13.0612 0.0000 0.0000 0.0000 14.0739 22.2260 -72.1077 -18.4909 -19.9453 85.5838 -3.3880 -9.6436 -39.0480 -0.2033 2.9036 -8.0104 0.0713 1.0355 27.2737 0.0622 1.5642 -1.7612 -0.6098 0.7430 -16.6818 -5.8030 -1.2074 -10.7138 5.9119 -3.6584 -22.3173 3.0079 -3.1373 -4.8305 0.0000 -0.0000 0.0000 -76.0366 -20.2380 14.5478 13.9612 -22.6791 -2.8131 -0.0000 -0.0000 9.8517 21.6404 -49.8762 -16.8763 -7.1250 0.0000 -0.0000 -9.3632 -21.3763 12.2559 0.0000 -0.0000 0.0000 72.6706 16.8010 31.7604 -17.5389 27.5627 -4.3338 0.0000 0.0000 9.2651 -5.5049 -49.8026 4.2102 7.1250 -0.0000 -0.0000 60.2318 -72.0849 -42.9036
0.00 0.00 0.00 -178.1250 0.4655 -147.3150 0.0000 0.0000 0.0000 -10.4697 -15.9925 -69.8961 18.4107 19.9393 85.3487 4.0779 -9.6789 -36.7433 0.9954 -6.3496 -17.8022 0.0000 0.0000 0.0000 16.5551 22.8044 -64.6387 -17.8672 -19.8906 83.7533 -3.0718 -12.8141 -39.4181 -0.0775 1.7958 -4.9416 0.1573 1.4587 25.3138 0.1836 2.1790 -0.9048 -0.7198 1.0369 -15.3382 -6.9385 -1.8557 -10.8589 5.0804 -4.2273 -20.4271 2.8577 -3.1122 -4.1949 -0.0000 -0.0000 0.0000 -63.0371 -57.1229 18.5466 16.6415 -26.3827 -3.9267 -0.0000 -0.0000 0.7480 26.1810 -51.7948 -21.1234 -7.1250 0.0000 -0.0000 -8.0229 -24.3577 10.6918 -0.0000 -0.0000 0.0000 56.3678 47.6566 25.1572 -23.2941 34.4089 -7.3038 0.0000 0.0000 0.4223 -7.5172 -52.5200 5.9781 7.1250 -0.0000 -0.0000 67.2409 -73.8932 -51.0657
0.00 0.00 0.00 -177.8630 0.5699 -148.3890 0.0000 0.0000 0.0000 -11.2556 -14.8548 -65.3698 17.2379 19.8161 81.9002 3.7690 -10.0035 -35.2305 1.2647 -7.1283 -20.0962 0.0000 0.0000 0.0000 18.6376 22.1349 -59.1938 -16.3179 -19.6718 79.1773 -2.8614 -13.5826 -38.9158 -0.0225 0.9690 -2.6635 0.2359 1.6821 23.5535 0.2970 2.4775 -1.0503 -0.6868 1.1709 -14.5016 -7.3871 -2.3458 -12.0402 4.2262 -4.8763 -19.3266 2.5990 -3.3503 -3.6691 0.0000 -0.0000 0.0000 -34.1349 -71.0927 -0.9893 22.0193 -32.9988 -6.5964 -0.0000 0.0000 -9.9861 27.0196 -53.0580 -22.1748 -7.1250 0.0000 -0.0000 -8.1089 -25.7609 10.9018 0.0000 -0.0000 0.0000 32.2912 60.2721 5.7175 -29.8607 40.7737 -11.3185 0.0000 -0.0000 -8.7586 -9.8343 -52.2989 7.8096 7.1250 -0.0000 -0.0000 65.2843 -74.6838 -50.1780
0.00 0.00 0.00 -177.6280 0.4512 -150.3640 0.0000 0.0000 0.0000 -12.8083 -13.4186 -57.1019 14.9750 19.3835 75.1613 3.2708 -9.8696 -32.7089 1.4007 -7.4867 -21.1656 0.0000 0.0000 0.0000 21.3059 19.4860 -50.5955 -13.7445 -19.0347 71.4227 -2.3323 -13.1921 -35.9688 -0.1406 2.4170 -6.6595 0.7982 1.5118 22.5920 0.2623 2.3916 -0.9472 -0.9832 1.0986 -13.8021 -7.9964 -2.2380 -13.3566 4.4344 -4.7515 -19.3830 2.7428 -3.3252 -3.4897 0.0000 0.0000 0.0000 15.8367 -71.1993 -45.5593 30.1144 -40.9913 -11.4846 -0.0000 0.0000 -16.7856 28.6836 -54.1994 -23.9287 -7.1250 0.0000 -0.0000 -7.8657 -27.2788 10.6618 0.0000 0.0000 0.0000 -1.5856 62.4744 -24.2227 -39.9785 48.0572 -18.4233 0.0000 -0.0000 -19.9995 -12.7083 -51.0413 9.9461 7.1250 -0.0000 -0.0000 59.2230 -75.3017 -45.4714
0.00 0.00 0.00 -177.1150 1.3220 -154.2330 0.0000 0.0000 0.0000 -15.8677 -9.1298 -40.8896 10.0302 17.4268 59.5891 1.6805 -8.5924 -23.2231 1.2191 -7.0036 -19.7261 0.0000 0.0000 0.0000 24.9322 11.9340 -34.6424 -8.3627 -16.3796 53.8587 -0.7852 -11.0235 -24.1239 -0.4489 4.2984 -11.9178 1.1089 1.6681 21.4676 0.0202 2.5777 -1.9114 -1.4728 1.1102 -14.2559 -8.6142 -2.1438 -13.2793 5.3635 -4.2559 -18.3983 3.1094 -2.9713 -3.1808 -0.0000 0.0000 0.0000 43.4286 -58.6818 -69.1086 36.2971 -45.7164 -15.7348 -0.0000 0.0000 -20.6822 27.6594 -57.0171 -23.7322 -7.1250 0.0000 -0.0000 -9.3358 -29.5340 12.8295 -0.0000 0.0000 0.0000 -29.9331 51.8687 -48.4474 -58.8425 55.9935 -33.3797 0.0000 -0.0000 -28.7098 -9.5117 -46.2661 6.9030 7.1250 -0.0000 -0.0000 47.7221 -71.5921 -32.3173
0.00 0.00 0.00 -177.0530 1.5576 -158.5440 0.0000 0.0000 0.0000 -17.9736 -4.8723 -23.8521 5.2121 13.6188 41.7313 0.1909 -4.3048 -7.8785 1.3465 -7.3463 -20.7455 0.0000 0.0000 0.0000 26.3007 2.3424 -18.6604 -3.4687 -11.4177 33.7019 0.2497 -9.1632 -6.0210 -0.5319 4.6734 -12.9793 1.4019 1.7716 18.2485 0.0791 2.7160 -2.9411 -1.5103 1.1502 -13.5482 -7.6121 -2.4014 -11.3481 4.4008 -4.1269 -14.7278 2.7562 -2.6047 -2.6320 0.0000 0.0000 0.0000 45.0818 -50.7659 -67.8438 35.0281 -44.8322 -14.8331 -0.0000 0.0000 -18.9888 30.4469 -56.5050 -26.1133 -7.1250 0.0000 -0.0000 -8.1150 -29.8657 11.1464 0.0000 0.0000 0.0000 -37.5028 43.1059 -54.6495 -67.5276 58.0031 -40.6688 0.0000 -0.0000 -34.3049 0.9111 -38.1183 -0.5624 7.1250 -0.0000 -0.0000 43.1851 -62.7791 -20.6043
0.00 0.00 0.00 -177.0690 1.6250 -162.3170 0.0000 0.0000 0.0000 -18.9566 -9.5860 -7.4316 2.3257 9.5138 27.4161 -0.3943 12.9479 2.4644 0.1279 2.3056 6.3510 0.0000 0.0000 0.0000 25.6187 6.0119 -0.0222 -0.6814 -5.2779 14.7029 2.1804 -29.0718 4.9846 -1.2611 -7.1188 20.0677 1.7865 1.3814 14.7431 -0.1338 2.2050 -4.0425 -1.7198 0.8907 -12.7154 -6.8122 -2.4736 -10.6823 4.5973 -3.2658 -7.2473 2.5472 -1.8029 -0.2914 0.0000 -0.0000 0.0000 48.0593 -46.4879 -67.2378 31.1085 -41.8248 -12.1421 -0.0000 0.0000 -19.0433 30.0228 -55.6755 -25.5127 -7.1250 0.0000 -0.0000 -7.9308 -29.0015 10.8463 0.0000 -0.0000 0.0000 -40.8558 37.2385 -54.9803 -59.7892 56.2535 -34.1658 0.0000 -0.0000 -35.0595 5.8497 -37.5072 -3.5695 7.1250 -0.0000 -0.0000 47.0051 -61.0704 -20.9625
0.00 0.00 0.00 -176.9850 1.2796 -163.7720 0.0000 0.0000 0.0000 -21.5485 -21.6566 1.9450 1.9002 8.6551 24.7222 -0.4483 18.0978 -21.3064 10.1572 17.4973 60.0125 0.0000 0.0000 0.0000 27.0517 11.5282 8.6572 -0.2714 -3.3513 9.2584 2.0582 -29.2081 -28.7662 -10.1551 -17.4962 60.0055 2.1742 1.1322 12.9413 -0.1969 1.9335 -4.6420 -1.8980 0.7484 -12.3128 -6.2214 -2.3458 -9.6948 4.3925 -2.8890 -3.8694 2.3738 -1.4949 0.5999 -0.0000 -0.0000 0.0000 49.5703 -44.2741 -67.1776 29.6517 -40.5930 -11.1823 -0.0000 0.0000 -19.6502 31.1907 -55.2064 -26.4348 -7.1250 0.0000 -0.0000 -7.3038 -28.9294 9.9762 -0.0000 -0.0000 0.0000 -44.0301 35.2247 -56.4854 -50.3149 53.1217 -26.4258 0.0000 -0.0000 -32.5825 8.2503 -37.7417 -5.0720 7.1250 -0.0000 -0.0000 49.4770 -60.6338 -21.8694
0.00 0.00 0.00 -176.9800 1.4865 -165.6230 0.0000 0.0000 0.0000 -7.1987 -41.1719 -19.9648 1.4027 7.4917 21.1807 6.1580 3.4196 -48.3331 12.5930 18.6302 67.8566 0.0000 0.0000 0.0000 20.1783 23.3837 -15.4612 -0.1207 -2.2397 6.1685 -3.1803 -17.3021 -42.9729 -11.6224 -18.2264 64.7867 2.2306 1.0937 20.5366 -0.1845 2.0499 -1.9308 -2.1400 0.7821 -13.7007 -6.0071 -2.3812 -9.8473 3.4433 -3.0997 14.5364 1.8131 -1.6719 6.1739 0.0000 0.0000 0.0000 31.1671 -30.0186 -54.3626 42.4239 -49.4422 -20.2620 -0.0000 0.0000 -34.3109 32.2547 -52.1621 -26.4910 -7.1250 0.0000 -0.0000 -5.6828 -26.5029 7.6466 0.0000 0.0000 0.0000 -18.6557 28.2119 -28.2052 -69.8631 58.4110 -42.6540 0.0000 -0.0000 -34.5538 1.5709 -38.6542 -0.9813 7.1250 -0.0000 -0.0000 44.5265 -62.9932 -21.6014
0.00 0.00 0.00 -177.0030 1.1735 -168.1170 0.0000 0.0000 0.0000 -2.6450 -42.1010 -25.4295 1.2636 7.1254 20.0873 6.6283 5.1242 -50.6484 12.2307 18.4865 66.7183 0.0000 0.0000 0.0000 16.6144 24.4506 -18.8035 -0.0024 -0.3138 0.8622 -3.5085 -15.1898 -42.9336 -12.0219 -18.3999 66.0583 2.2168 1.1445 24.2106 -0.2333 2.3605 -0.0189 -2.3945 1.0152 -13.5548 -6.7512 -2.7137 -9.2551 4.5195 -3.5376 13.1551 2.2482 -1.8155 5.6911 -0.0000 0.0000 0.0000 12.3367 -16.8426 -17.7110 78.2842 -59.4749 -49.8717 -0.0000 0.0000 -36.8387 23.4529 -52.9703 -19.1031 -7.1250 0.0000 -0.0000 -9.5128 -24.7308 12.7432 -0.0000 0.0000 0.0000 -4.6953 17.8125 1.5288 -76.3234 59.2813 -48.1843 0.0000 -0.0000 -32.5894 3.3047 -40.9782 -2.1685 7.1250 -0.0000 -0.0000 49.4818 -64.1284 -25.8871
0.00 0.00 0.00 -176.8390 0.3975 -169.8580 0.0000 0.0000 0.0000 -1.3508 -40.8742 -26.8895 1.0388 6.4821 18.1899 5.1955 10.5285 -47.2780 11.4509 18.1487 64.2373 0.0000 0.0000 0.0000 15.9831 24.4636 -19.6468 0.0000 -0.0000 0.0000 0.8600 -29.0143 -36.2715 -10.7598 -17.8155 61.9992 2.3287 1.3892 25.9506 0.0209 2.9708 1.2300 -2.4388 1.3979 -13.0365 -6.4380 -2.9459 -8.3923 4.3520 -3.7999 11.2151 2.1372 -1.9127 4.9491 -0.0000 -0.0000 0.0000 1.0764 -5.1084 -0.4689 99.7908 -59.6347 -68.4687 -0.0000 0.0000 -30.4806 24.4567 -56.0290 -20.6658 -7.1250 0.0000 -0.0000 -10.1461 -27.7994 13.8476 -0.0000 -0.0000 0.0000 5.2000 4.9643 17.7513 -74.6135 59.0863 -46.7158 0.0000 -0.0000 -33.9724 2.9355 -43.1219 -2.0075 7.1250 -0.0000 -0.0000 52.6150 -65.6158 -29.6842
0.00 0.00 0.00 -176.8030 -0.6920 -170.8310 0.0000 0.0000 0.0000 -2.2834 -37.2337 -27.5284 0.8494 5.8781 16.4312 1.3348 19.5716 -36.1202 9.9502 17.3817 59.3217 0.0000 0.0000 0.0000 15.8700 24.1851 -21.3912 -0.0315 -1.1459 3.1503 6.5199 -40.0111 -16.9728 -7.3317 -15.6049 50.1178 2.7363 1.8922 27.0164 0.4540 2.7960 1.8488 -2.0414 0.8898 -12.8829 -7.3087 -3.3312 -8.2816 4.7482 -4.1596 9.6630 2.3819 -2.0701 4.5010 0.0000 -0.0000 0.0000 -7.5579 2.0034 2.9897 101.2354 -59.5176 -69.7143 -0.0000 0.0000 -30.1593 21.9617 -55.3883 -18.3601 -7.1250 0.0000 -0.0000 -10.8745 -26.5985 14.7705 0.0000 -0.0000 0.0000 13.0446 -4.1491 24.0623 -72.0588 58.7481 -44.5278 0.0000 -0.0000 -33.4389 1.9396 -42.9385 -1.3216 7.1250 -0.0000 -0.0000 51.4127 -65.7963 -29.0458
